<?xml version="1.0" standalone="no"?>
<!DOCTYPE svg PUBLIC "-//W3C//DTD SVG 20010904//EN"
 "http://www.w3.org/TR/2001/REC-SVG-20010904/DTD/svg10.dtd">
<svg version="1.0" xmlns="http://www.w3.org/2000/svg"
 width="2000.000000pt" height="2000.000000pt" viewBox="0 0 1350.000000 1350.000000"
 preserveAspectRatio="xMidYMid meet">
<metadata>
Created by potrace 1.10, written by Peter Selinger 2001-2011
</metadata>
<g transform="translate(0.000000,1350.000000) scale(0.100000,-0.100000)"
fill="#000000" stroke="none">
<path d="M6505 9830 c-73 -8 -178 -30 -236 -49 -181 -58 -178 -56 -306 -118
-51 -25 -93 -49 -93 -53 0 -4 -19 -19 -42 -33 -51 -30 -204 -160 -267 -226
-79 -83 -210 -252 -235 -302 -3 -8 -20 -36 -37 -64 -16 -27 -37 -63 -45 -80
-8 -16 -18 -37 -23 -45 -38 -68 -68 -163 -116 -370 -25 -104 -25 -417 -1 -510
24 -88 51 -174 77 -240 37 -96 37 -93 -30 -166 -33 -37 -61 -74 -61 -83 0 -9
-7 -25 -15 -35 -8 -11 -15 -32 -15 -47 0 -14 -7 -43 -15 -62 -18 -43 -20 -201
-4 -262 6 -22 14 -57 18 -78 5 -21 14 -44 20 -50 6 -6 11 -21 11 -33 0 -12 7
-27 15 -34 8 -7 15 -17 15 -22 0 -12 58 -88 80 -104 8 -7 26 -21 39 -33 13
-12 30 -21 36 -21 7 0 18 -7 25 -15 7 -8 20 -15 30 -15 10 0 23 -7 30 -15 7
-8 23 -15 35 -15 13 0 36 -7 51 -15 16 -8 52 -15 79 -15 57 0 75 -12 75 -50 0
-14 7 -35 15 -46 8 -10 15 -27 15 -37 0 -11 6 -31 14 -45 7 -15 24 -49 37 -75
41 -82 52 -102 61 -105 4 -2 8 -9 8 -16 0 -16 209 -220 272 -265 82 -58 72
-100 -24 -109 -63 -6 -84 -20 -141 -99 -24 -32 -82 -94 -130 -138 -47 -43 -83
-83 -81 -87 12 -19 39 -4 96 52 67 65 94 77 78 34 -6 -14 -10 -41 -10 -60 l0
-34 59 0 c33 0 62 4 65 9 3 4 24 11 46 15 22 3 40 11 40 16 0 6 10 10 22 10
12 0 30 7 40 17 17 15 18 15 18 -10 0 -20 -10 -33 -40 -52 -21 -13 -44 -34
-50 -45 -6 -11 -15 -20 -21 -20 -12 0 -202 -93 -241 -118 -118 -75 -273 -206
-355 -299 -66 -76 -153 -188 -153 -198 0 -3 -27 -42 -60 -85 -33 -43 -60 -82
-60 -86 0 -4 -6 -15 -14 -23 -21 -24 -102 -182 -110 -214 -5 -20 -12 -27 -24
-25 -15 3 -18 26 -24 203 -4 110 -5 252 -2 315 6 129 -3 170 -42 206 -23 22
-25 31 -21 72 6 66 28 117 61 143 16 12 41 40 57 62 24 33 29 50 29 99 0 165
-158 312 -360 334 -122 14 -310 -62 -426 -172 -40 -38 -114 -136 -114 -152 0
-4 -12 -21 -27 -38 -93 -101 -123 -162 -123 -247 1 -75 31 -126 102 -172 26
-16 47 -35 47 -42 1 -7 -12 -31 -27 -55 -69 -106 -87 -257 -78 -648 7 -337 22
-630 35 -690 6 -25 10 -68 11 -96 0 -61 31 -214 54 -267 17 -38 93 -120 156
-167 101 -76 198 -101 301 -80 78 16 115 37 157 90 20 23 41 40 54 40 43 0 84
37 101 91 10 28 17 57 17 65 0 8 15 20 34 28 18 7 45 27 60 42 27 29 28 31 24
137 -4 102 3 138 22 106 73 -126 233 -298 320 -342 30 -16 89 -38 130 -49 41
-11 80 -24 86 -29 19 -15 121 -39 167 -39 94 2 271 33 377 67 56 18 191 74
206 85 6 4 33 19 59 33 45 25 181 118 242 166 96 78 373 377 373 404 0 3 26
41 58 83 51 69 97 135 127 184 35 58 73 154 89 230 7 32 22 37 30 11 2 -10 7
-124 11 -253 8 -277 19 -481 35 -605 41 -331 58 -406 111 -479 41 -58 81 -81
184 -106 107 -26 156 -21 212 19 45 33 103 102 103 124 0 23 40 67 61 67 12 0
21 -9 25 -27 25 -100 85 -152 196 -172 67 -12 82 -11 125 3 61 20 106 63 143
136 16 30 44 71 64 89 42 41 66 84 90 166 10 33 24 79 32 103 8 23 14 50 14
60 0 18 16 90 57 257 14 55 29 119 34 142 12 61 39 110 50 92 5 -8 9 -30 9
-49 0 -19 4 -51 10 -70 30 -110 47 -246 70 -565 17 -233 51 -283 270 -392 42
-21 172 -25 192 -5 6 6 18 12 24 12 42 0 184 143 184 185 0 6 20 32 45 57 135
137 160 324 90 663 -8 39 -22 111 -30 160 -9 50 -22 119 -30 155 -8 36 -21 99
-29 140 -8 41 -22 109 -30 150 -8 41 -22 122 -31 180 -15 99 -25 154 -62 330
-30 149 -46 216 -59 253 -8 20 -14 44 -14 53 0 21 -92 209 -127 261 -46 68
-106 133 -143 156 -33 21 -45 22 -213 19 -198 -4 -236 -13 -293 -74 -29 -31
-64 -94 -64 -116 0 -6 -13 -20 -29 -32 -16 -11 -43 -37 -59 -58 -30 -38 -31
-42 -78 -297 -8 -44 -21 -109 -29 -145 -26 -126 -48 -225 -52 -239 -8 -28 -20
5 -37 99 -10 52 -24 127 -32 165 -8 39 -14 84 -14 100 0 17 -7 55 -15 85 -8
30 -15 73 -15 94 0 100 -76 291 -141 354 -19 18 -58 45 -89 59 -73 36 -198 44
-268 18 -44 -17 -114 -64 -137 -92 -16 -19 -66 -34 -89 -27 -11 4 -53 33 -91
66 -81 68 -116 88 -165 97 -32 6 -35 10 -38 42 -3 32 1 38 40 65 24 16 48 34
54 39 6 6 35 30 64 55 109 93 200 199 225 260 4 8 10 22 15 30 5 8 20 35 32
60 13 25 29 51 36 58 6 7 12 22 12 33 0 10 4 19 8 19 5 0 14 11 20 25 7 14 22
30 34 35 13 6 37 19 53 30 17 11 50 30 75 42 25 13 56 35 70 49 14 14 61 54
105 90 88 71 145 128 145 145 0 6 6 16 13 22 17 15 72 128 87 182 21 75 23
164 6 224 -9 30 -16 63 -16 74 0 67 -89 175 -172 211 -27 11 -48 23 -48 26 0
3 8 31 19 62 70 216 85 315 85 568 1 235 -3 273 -49 440 -8 28 -16 59 -19 70
-22 97 -120 299 -208 430 -126 188 -309 359 -498 463 -138 77 -214 110 -290
126 -47 10 -111 24 -144 33 -68 17 -392 26 -501 13z m183 -817 c6 -16 13 -39
16 -53 3 -14 14 -39 25 -56 18 -29 22 -31 68 -27 68 6 260 -29 338 -63 17 -7
48 -20 70 -29 22 -9 54 -23 70 -30 17 -8 37 -16 45 -19 8 -3 23 -10 33 -16 18
-10 25 -14 92 -51 22 -11 59 -34 83 -50 24 -16 45 -29 48 -29 3 0 32 -20 64
-45 32 -25 61 -45 64 -45 3 0 29 -22 58 -49 45 -43 50 -51 39 -65 -8 -9 -17
-59 -22 -114 -4 -53 -12 -117 -18 -142 -15 -65 -13 -193 3 -242 8 -24 17 -55
20 -70 4 -16 11 -28 16 -28 6 0 10 -4 10 -10 0 -15 -32 -12 -54 5 -11 8 -29
15 -40 15 -28 0 -157 29 -178 40 -47 25 -138 50 -183 50 -37 0 -64 -8 -104
-30 -30 -17 -68 -30 -85 -30 -30 0 -126 -29 -164 -50 -9 -5 -24 -11 -32 -14
-8 -4 -35 -17 -59 -31 -43 -24 -49 -25 -247 -25 -114 0 -205 4 -209 9 -8 15
-144 77 -205 95 -30 9 -77 23 -103 31 -26 8 -59 15 -72 15 -13 0 -27 5 -30 10
-12 20 -102 11 -151 -15 -26 -14 -63 -25 -83 -25 -37 0 -68 -7 -161 -35 -111
-33 -131 -38 -134 -34 -2 2 1 36 8 75 15 84 4 293 -19 365 -27 83 -22 96 58
173 66 64 113 107 205 189 18 15 35 27 38 27 3 0 23 12 43 28 109 82 352 188
476 208 210 34 301 58 315 84 5 10 13 43 16 74 7 62 16 70 32 29z m-518 -1277
c107 -21 139 -42 161 -106 22 -64 24 -155 4 -190 -8 -14 -14 -37 -15 -51 0
-15 -7 -32 -15 -39 -8 -7 -15 -19 -15 -27 0 -28 -43 -73 -77 -79 -35 -7 -43
-18 -17 -28 19 -7 64 3 64 15 0 5 5 9 11 9 15 0 59 42 59 56 0 7 7 25 15 40 8
16 15 39 15 52 0 13 7 31 16 40 13 13 15 33 12 109 -2 51 -1 93 2 93 15 0 68
-72 84 -114 20 -52 18 -168 -3 -246 -23 -82 -75 -172 -132 -229 -62 -63 -71
-69 -119 -92 -105 -49 -121 -53 -222 -52 -99 1 -125 7 -215 51 -122 60 -222
216 -238 370 -6 65 3 202 14 202 3 -1 27 -31 54 -68 94 -133 197 -242 227
-242 10 0 23 -7 30 -15 10 -12 38 -15 136 -15 67 0 135 4 149 10 55 21 12 30
-141 30 -88 0 -154 4 -154 9 0 5 -9 13 -21 16 -29 10 -44 26 -148 163 -50 67
-91 130 -91 141 0 21 72 99 135 147 20 15 59 33 88 40 68 16 265 17 347 0z
m1365 1 c50 -8 97 -17 103 -21 7 -4 23 -25 37 -45 13 -21 29 -44 37 -52 16
-16 58 -100 58 -117 0 -6 -10 -22 -23 -36 -36 -38 -82 -95 -142 -172 -52 -69
-56 -72 -106 -78 -71 -10 -239 3 -266 20 -12 8 -33 14 -45 14 -13 0 -43 17
-66 38 -42 36 -63 75 -82 152 -5 19 -14 55 -20 79 -8 33 -8 47 2 58 13 16 27
39 53 90 9 18 23 37 31 44 42 35 266 49 429 26z m-1911 -95 c-11 -9 -26 -26
-32 -37 -10 -17 -11 -18 -12 -3 0 23 30 58 50 58 11 -1 10 -5 -6 -18z m1406 8
c0 -5 -4 -10 -9 -10 -5 0 -13 -10 -17 -22 -3 -13 -13 -31 -22 -40 -17 -20 -12
-110 7 -116 6 -2 11 -16 11 -31 0 -15 7 -36 15 -47 8 -10 15 -28 15 -39 1 -40
110 -135 155 -135 13 0 28 -6 34 -14 15 -17 204 -29 284 -18 42 7 65 16 87 37
17 16 30 34 30 39 1 6 14 22 30 36 17 13 30 28 30 33 0 5 6 14 13 21 6 8 19
23 27 36 26 38 100 113 106 107 14 -13 -9 -218 -26 -242 -4 -5 -11 -21 -15
-35 -4 -14 -20 -44 -36 -68 -16 -24 -29 -45 -29 -48 0 -8 -103 -104 -111 -104
-4 0 -14 -6 -21 -13 -7 -7 -33 -21 -58 -32 -37 -17 -65 -20 -165 -19 -122 1
-149 7 -230 57 -32 19 -135 125 -145 150 -6 12 -14 29 -19 37 -40 72 -71 196
-71 290 0 65 3 76 32 114 49 64 98 103 98 76z m760 -32 c17 -23 30 -54 30 -70
0 -36 -16 -37 -25 -1 -3 15 -19 47 -35 70 -39 58 -12 59 30 1z m-2487 -35 c8
-10 19 -31 23 -48 4 -16 10 -34 14 -40 12 -15 23 -115 13 -115 -4 0 -16 20
-27 45 -19 47 -70 95 -100 95 -19 0 -65 -28 -83 -50 -9 -11 -12 -11 -13 -2 0
24 59 102 79 102 5 0 14 7 21 15 17 20 53 19 73 -2z m2860 -30 c38 -22 97 -83
97 -101 0 -8 6 -26 14 -40 11 -21 36 -156 38 -207 1 -25 -26 -143 -38 -167 -8
-14 -14 -33 -14 -42 0 -9 -4 -16 -9 -16 -5 0 -13 -10 -17 -22 -3 -12 -11 -26
-16 -32 -5 -6 -19 -26 -33 -44 -13 -19 -37 -43 -53 -55 -26 -20 -64 -52 -190
-164 -20 -18 -40 -33 -43 -33 -3 0 -16 -9 -29 -20 -13 -11 -27 -20 -32 -20
-13 0 -9 43 7 64 8 11 15 33 15 50 0 17 7 48 16 71 12 31 24 44 57 58 131 57
174 88 206 149 21 38 33 169 21 221 -9 42 -63 104 -107 122 -43 18 -42 29 7
44 33 10 45 9 71 -4 55 -29 81 6 37 52 -27 28 -96 31 -139 6 -33 -20 -45 -13
-30 15 6 12 11 34 11 50 0 34 12 46 66 65 52 19 51 19 87 0z m-1385 -26 c13
-14 13 -20 -2 -58 -18 -45 -17 -78 5 -184 10 -47 30 -101 50 -135 5 -8 15 -29
23 -46 8 -18 31 -50 51 -73 l37 -41 -25 -9 c-25 -10 -25 -11 -11 -40 8 -17 19
-33 25 -36 14 -9 11 -55 -6 -71 -16 -16 -10 -44 10 -44 22 0 55 51 55 84 0 17
-7 44 -15 60 -9 16 -13 31 -10 34 3 3 5 1 5 -5 0 -23 178 -130 240 -144 19 -4
53 -12 75 -18 59 -16 121 -13 205 8 83 21 123 39 189 85 56 38 139 123 153
155 5 13 7 12 7 -5 1 -11 5 -24 10 -30 6 -5 6 -26 0 -54 -6 -25 -15 -65 -20
-89 -5 -24 -12 -71 -15 -105 -6 -63 -11 -79 -63 -184 -17 -34 -31 -68 -31 -76
0 -7 -7 -19 -15 -26 -8 -7 -15 -20 -15 -30 0 -10 -7 -23 -15 -30 -8 -7 -15
-21 -15 -31 0 -11 -4 -19 -9 -19 -5 0 -13 -10 -17 -22 -3 -12 -13 -28 -20 -36
-8 -7 -14 -20 -14 -28 0 -8 -4 -14 -9 -14 -5 0 -13 -10 -17 -22 -16 -53 -194
-237 -272 -282 -17 -10 -31 -21 -57 -43 -7 -7 -16 -13 -19 -13 -3 0 -22 -12
-43 -26 -21 -14 -47 -30 -58 -35 -11 -5 -40 -21 -64 -34 -24 -14 -49 -25 -56
-25 -6 0 -16 -5 -23 -12 -13 -13 -69 -35 -125 -49 -21 -5 -45 -13 -55 -18 -87
-44 -140 -51 -189 -26 -15 8 -89 44 -163 80 -74 37 -148 75 -165 86 -16 10
-37 22 -45 26 -27 14 -155 101 -175 120 -11 10 -42 36 -70 58 -82 66 -202 189
-225 231 -12 21 -25 46 -30 54 -5 8 -11 22 -14 30 -3 8 -10 22 -14 30 -27 47
-42 84 -42 99 0 9 -7 26 -15 37 -8 10 -15 30 -15 44 0 14 -7 36 -15 50 -8 14
-14 39 -15 56 0 16 -7 39 -15 50 -8 10 -15 31 -15 46 0 15 -6 42 -14 60 -17
40 -34 105 -47 178 -5 30 -14 59 -18 65 -14 17 -22 63 -12 69 5 3 12 -5 15
-19 7 -27 57 -114 91 -155 146 -183 373 -262 564 -198 36 12 80 30 96 40 17
10 39 22 50 27 11 5 33 23 49 40 17 17 33 31 38 31 4 0 8 -21 8 -47 0 -27 4
-53 8 -59 10 -16 48 -34 56 -27 10 10 7 43 -4 43 -16 0 -11 72 6 91 15 17 15
20 -1 45 -9 15 -13 29 -9 33 29 21 86 132 124 241 18 52 25 212 11 239 -17 31
-5 59 27 64 50 9 144 -1 160 -16z m-1513 -117 c31 -49 32 -76 4 -91 -30 -15
-68 -61 -69 -79 0 -9 -5 -21 -11 -27 -12 -12 -32 -101 -31 -138 1 -36 17 -89
36 -121 16 -26 45 -46 126 -84 28 -13 95 -20 108 -12 7 5 15 39 19 76 6 71 23
101 23 41 0 -19 7 -52 15 -72 8 -19 15 -45 15 -57 0 -11 7 -34 15 -50 8 -15
15 -38 15 -50 0 -11 7 -34 15 -50 8 -15 15 -31 15 -33 0 -10 -157 28 -187 45
-12 6 -31 12 -42 12 -10 0 -21 3 -23 8 -4 9 -65 52 -75 52 -12 1 -83 102 -98
140 -4 8 -12 29 -19 45 -40 91 -58 300 -32 366 9 22 16 54 17 72 0 30 1 31 11
10 15 -31 31 -29 70 7 18 16 39 30 45 30 7 0 24 -18 38 -40z m172 -337 c-3
-10 -5 -2 -5 17 0 19 2 27 5 18 2 -10 2 -26 0 -35z m737 -1220 c11 -7 29 -16
39 -19 9 -3 17 -10 17 -14 0 -5 12 -13 28 -19 15 -6 45 -22 67 -36 22 -13 46
-24 53 -25 7 0 20 -7 28 -15 9 -8 24 -15 35 -15 10 0 19 -4 19 -10 0 -5 12
-13 28 -17 15 -3 40 -14 55 -23 l28 -17 -83 -6 c-46 -3 -103 -10 -128 -15 -25
-6 -70 -16 -100 -22 -30 -6 -67 -13 -82 -17 l-28 -5 0 98 c0 91 -5 122 -26
194 -7 23 -6 24 10 10 10 -8 28 -20 40 -27z m-97 -15 c13 -16 33 -98 33 -132
0 -26 -45 -76 -68 -76 -8 0 -26 -6 -40 -14 -42 -21 -95 -38 -122 -40 -22 -1
-25 3 -23 29 7 125 59 229 119 238 59 8 92 7 101 -5z m1133 -17 c0 -5 -7 -22
-15 -37 -10 -20 -15 -59 -15 -122 0 -92 0 -93 -22 -86 -13 4 -32 13 -43 20
-11 8 -36 14 -56 14 -20 0 -53 7 -72 15 -20 8 -64 15 -98 15 -61 0 -62 0 -44
20 10 11 29 20 41 20 20 0 102 36 164 71 8 4 38 20 67 34 28 14 55 30 58 35 8
12 35 13 35 1z m138 -71 c48 -35 82 -94 82 -145 0 -32 -2 -35 -29 -35 -16 0
-31 6 -35 15 -3 8 -14 15 -24 15 -11 0 -25 7 -32 15 -7 8 -20 15 -29 15 -10 0
-28 11 -40 24 -19 20 -21 30 -15 62 3 22 11 45 17 52 16 21 62 13 105 -18z
m-2583 -21 c53 -23 130 -95 145 -135 19 -48 12 -83 -22 -114 -34 -32 -144 -90
-168 -90 -8 0 -35 -14 -60 -30 -46 -31 -78 -38 -96 -20 -5 5 -47 12 -92 16
-77 6 -87 10 -123 42 -30 27 -39 43 -39 68 0 18 -4 35 -8 38 -9 6 -52 -47 -52
-63 0 -22 62 -80 88 -83 15 -2 26 -7 25 -13 -4 -17 -39 -17 -53 0 -7 8 -20 15
-29 15 -21 0 -61 52 -61 78 0 38 43 116 89 161 50 50 151 121 173 121 7 1 24
7 38 15 41 23 187 20 245 -6z m3247 -89 c39 -23 96 -101 116 -160 6 -19 14
-62 17 -95 3 -33 12 -96 20 -140 8 -44 21 -125 30 -180 9 -55 23 -130 31 -166
8 -37 14 -75 14 -85 0 -11 6 -50 14 -89 8 -38 22 -108 31 -155 27 -141 68
-346 91 -445 7 -33 16 -73 19 -89 11 -52 25 -14 70 194 9 41 23 98 31 126 8
28 14 59 14 69 0 10 6 41 14 69 8 28 21 85 31 126 33 153 47 216 60 270 15 61
35 153 60 275 9 44 23 108 31 142 8 34 14 80 14 103 0 22 7 72 15 109 13 53
22 72 45 89 43 32 109 44 169 30 39 -9 57 -9 76 0 35 16 80 15 114 -3 30 -15
121 -113 121 -129 0 -5 6 -17 13 -25 16 -20 70 -148 91 -216 29 -95 57 -223
90 -400 8 -44 20 -107 26 -140 6 -33 15 -92 20 -132 5 -40 13 -89 19 -110 11
-45 34 -156 56 -273 9 -47 21 -105 26 -130 62 -263 70 -310 76 -452 4 -123 3
-142 -17 -195 -59 -158 -178 -216 -305 -147 -143 77 -155 95 -166 253 -29 424
-43 533 -91 731 -6 25 -14 63 -18 85 -4 22 -13 63 -20 90 -36 149 -65 278 -74
334 -12 69 -56 86 -56 22 0 -22 -6 -44 -15 -51 -8 -7 -15 -25 -15 -40 0 -34
-9 -60 -21 -60 -15 0 -10 68 6 84 8 8 15 30 15 50 0 19 6 41 13 48 8 7 17 29
20 48 4 19 10 47 13 63 5 23 3 27 -15 27 -14 0 -22 -8 -27 -27 -3 -16 -11 -46
-19 -68 -7 -22 -16 -55 -20 -72 -4 -18 -11 -35 -16 -38 -5 -4 -9 -16 -9 -28 0
-12 -6 -42 -14 -67 -8 -25 -21 -68 -30 -96 -9 -29 -16 -65 -16 -80 -1 -16 -7
-40 -15 -54 -8 -14 -14 -42 -15 -63 0 -21 -7 -49 -16 -63 -16 -24 -16 -33 2
-132 4 -19 2 -43 -4 -55 -6 -12 -13 -40 -15 -62 -2 -22 -9 -60 -15 -85 -6 -25
-17 -76 -26 -115 -60 -287 -76 -351 -93 -385 -7 -14 -13 -35 -13 -46 0 -58
-80 -144 -133 -144 -23 0 -83 19 -105 34 -16 10 -62 112 -62 137 0 10 -6 36
-14 56 -7 21 -21 67 -31 103 -9 36 -23 85 -31 110 -7 25 -21 77 -30 115 -9 39
-22 90 -29 115 -13 44 -29 99 -59 210 -8 30 -22 80 -30 111 -9 31 -16 67 -16
80 0 14 -12 41 -26 60 -24 31 -26 32 -21 9 3 -14 8 -110 12 -215 3 -104 10
-315 17 -467 14 -356 7 -395 -79 -456 -33 -23 -68 -29 -78 -12 -3 6 -26 10
-51 10 -65 0 -109 31 -140 100 -20 43 -49 213 -59 335 -4 50 -9 99 -12 110 -9
40 -29 958 -27 1260 2 360 9 429 40 433 26 4 34 -19 34 -99 0 -74 12 -211 18
-205 2 3 7 61 12 130 5 97 11 131 24 145 11 13 15 27 11 44 -9 35 23 79 77
107 57 28 174 24 230 -10z m-514 -1 c11 -18 11 -24 -4 -40 -22 -25 -34 -16
-34 27 0 39 18 45 38 13z m-192 -62 c4 -4 20 -7 35 -7 15 0 29 -6 32 -14 3 -8
22 -16 44 -18 35 -3 38 -5 38 -33 0 -24 -7 -34 -37 -50 -20 -11 -46 -35 -56
-55 -19 -34 -24 -63 -41 -231 -10 -97 -17 -108 -46 -78 -13 13 -35 35 -49 48
-26 23 -27 41 -3 41 15 0 35 22 65 73 27 46 30 133 6 183 -9 18 -36 53 -60 76
-24 24 -44 46 -44 49 0 4 9 9 20 12 11 3 20 12 20 20 0 12 5 13 35 3 19 -7 38
-15 41 -19z m-306 -82 c147 -45 190 -79 190 -151 0 -35 -5 -46 -27 -61 -14
-10 -38 -30 -53 -45 l-26 -26 -200 -6 c-374 -10 -572 -63 -804 -214 -99 -64
-276 -236 -339 -330 -45 -67 -141 -252 -141 -272 0 -7 -7 -33 -15 -59 -64
-203 -58 -350 20 -458 44 -61 77 -73 198 -73 115 0 183 17 303 76 171 83 369
271 510 484 17 25 33 52 37 60 4 8 16 29 27 45 11 17 23 37 26 45 4 8 14 23
22 33 12 13 13 20 4 29 -9 9 -24 8 -64 -2 -29 -7 -73 -16 -98 -20 -78 -13
-341 -82 -519 -136 -25 -8 -66 -14 -92 -14 -40 0 -55 6 -83 30 -19 17 -42 50
-51 74 -15 39 -15 46 -1 80 8 20 31 52 51 70 20 19 35 43 35 56 0 53 53 94
160 123 113 32 167 46 230 62 36 9 87 23 114 31 26 8 55 14 64 14 8 0 39 7 69
15 92 26 155 42 238 60 44 9 108 23 142 31 120 27 209 16 266 -34 29 -26 57
-97 57 -144 0 -40 -27 -142 -48 -185 -5 -10 -17 -36 -27 -58 -9 -22 -24 -52
-31 -67 -8 -14 -14 -33 -14 -41 0 -8 -7 -17 -15 -21 -8 -3 -15 -14 -15 -25 0
-11 -5 -23 -11 -26 -5 -4 -15 -17 -20 -28 -16 -35 -36 -69 -46 -76 -10 -8 -30
-39 -43 -68 -5 -13 -14 -23 -20 -23 -5 0 -10 -7 -10 -15 0 -8 -4 -15 -8 -15
-5 0 -24 -21 -42 -47 -19 -27 -103 -115 -186 -198 -159 -157 -179 -175 -190
-175 -3 0 -23 -12 -43 -27 -45 -35 -70 -50 -98 -62 -11 -6 -24 -15 -28 -20 -3
-6 -14 -11 -24 -11 -10 0 -24 -7 -31 -15 -7 -8 -20 -15 -30 -15 -10 0 -23 -7
-30 -15 -7 -8 -23 -15 -35 -15 -12 0 -28 -7 -35 -15 -7 -8 -25 -15 -41 -15
-15 0 -34 -6 -42 -14 -8 -8 -33 -16 -56 -18 -23 -2 -41 -7 -41 -13 -1 -17 48
-17 82 -1 17 9 41 16 53 16 11 0 30 7 41 15 10 8 29 15 40 15 12 0 27 7 34 15
7 8 19 15 26 15 19 0 137 62 147 78 4 6 13 12 18 12 11 0 168 115 185 136 6 8
15 14 19 14 18 0 259 254 327 345 41 55 77 107 81 115 4 8 16 29 27 45 11 17
24 40 29 52 5 11 15 24 20 28 6 3 11 15 11 26 0 11 7 22 15 25 8 4 15 15 15
25 0 11 7 19 16 19 12 0 15 -6 10 -22 -4 -13 -13 -52 -22 -88 -21 -89 -56
-158 -131 -263 -89 -122 -93 -127 -218 -252 -96 -97 -223 -205 -239 -205 -3 0
-34 -19 -69 -42 -172 -117 -426 -198 -618 -198 -69 0 -80 3 -117 30 -27 20
-54 30 -77 30 -83 0 -205 73 -283 171 -166 204 -221 316 -242 490 -15 124 16
305 73 430 13 30 27 61 31 69 3 8 15 29 26 45 11 17 23 37 27 45 18 39 158
212 220 271 100 96 256 219 279 219 2 0 21 11 42 24 21 13 78 41 127 62 50 20
105 50 123 66 18 15 42 28 54 28 12 0 44 6 72 14 156 44 271 55 511 51 141 -3
204 -8 245 -20z m-2450 -175 c0 -6 -30 -10 -72 -9 -50 0 -67 3 -53 9 28 12
125 12 125 0z m137 -73 c21 -19 46 -37 56 -40 16 -6 17 -34 18 -394 1 -362 7
-509 21 -473 4 8 9 150 12 315 4 176 10 303 16 309 7 7 10 -15 10 -64 0 -41 5
-165 10 -275 25 -539 38 -722 61 -905 16 -119 25 -227 21 -239 -2 -6 -17 -11
-34 -11 -36 0 -74 -28 -103 -77 -34 -56 -112 -76 -199 -51 -41 12 -146 84
-179 122 -44 53 -87 213 -87 322 0 23 -8 79 -17 125 -14 72 -17 156 -17 579
l-1 495 23 55 c44 103 109 167 217 212 93 39 124 38 172 -5z m4181 -644 c-4
-48 -28 -57 -28 -10 0 18 3 37 7 40 16 16 24 4 21 -30z m-28 -92 c0 -37 -10
-62 -21 -55 -10 6 -12 67 -2 77 14 15 23 6 23 -22z m-34 -96 c8 -21 -4 -67
-16 -60 -13 8 -13 75 0 75 6 0 13 -7 16 -15z m-32 -111 c3 -8 3 -27 0 -41 -8
-31 -24 -12 -24 30 0 29 14 36 24 11z m-2430 -91 c13 -14 -153 -154 -249 -210
-110 -63 -175 -83 -274 -83 -49 0 -97 3 -105 6 -29 11 -56 88 -56 158 0 37 4
66 9 66 5 0 29 -11 52 -25 51 -29 138 -34 210 -11 24 7 73 21 109 31 90 24
147 40 200 58 50 16 93 21 104 10z"/>
<path d="M6076 8445 c-15 -8 -38 -15 -51 -15 -40 0 -212 -80 -310 -145 -39
-26 -43 -29 -90 -70 -22 -19 -43 -35 -47 -35 -5 0 -8 -9 -8 -20 0 -15 7 -20
29 -20 16 0 34 7 41 15 7 8 19 15 27 15 8 0 27 6 41 13 15 8 42 21 60 30 19 9
41 17 51 17 9 0 26 7 37 15 10 8 26 15 34 15 8 0 27 6 42 14 14 8 45 17 67 21
23 4 43 11 47 16 3 5 18 9 33 9 16 0 48 7 71 15 23 8 57 15 74 15 68 0 69 42
2 74 -19 9 -38 21 -41 26 -9 15 -76 12 -109 -5z"/>
<path d="M7059 8439 c-45 -21 -79 -61 -79 -93 0 -9 1 -16 3 -17 1 0 76 -2 167
-5 108 -3 184 -10 220 -20 165 -47 201 -62 256 -101 35 -26 74 -30 74 -9 0 23
-81 100 -145 137 -96 56 -196 99 -230 99 -13 0 -35 4 -49 10 -14 5 -58 12 -98
15 -61 4 -80 2 -119 -16z"/>
<path d="M6058 7674 c-34 -18 -35 -30 -4 -38 36 -9 52 -57 33 -98 -22 -48 -29
-102 -17 -132 13 -36 -5 -33 -20 4 -13 31 -75 75 -91 64 -13 -8 0 -95 17 -115
8 -8 14 -20 14 -25 0 -27 79 -74 125 -74 132 0 218 184 151 325 -44 94 -131
131 -208 89z m145 -296 c-26 -45 -45 -54 -82 -38 -41 17 -39 27 4 22 30 -4 37
0 55 29 11 19 24 48 28 64 7 30 7 30 10 -8 2 -24 -4 -50 -15 -69z"/>
<path d="M6001 7626 c-8 -9 -11 -19 -7 -23 9 -9 29 13 24 27 -2 8 -8 7 -17 -4z"/>
<path d="M5964 7566 c-7 -28 2 -49 17 -41 12 8 12 65 -1 65 -5 0 -12 -11 -16
-24z"/>
<path d="M7265 7676 c-50 -28 -75 -49 -75 -61 0 -7 -7 -18 -15 -25 -8 -7 -15
-20 -15 -30 0 -10 -7 -31 -15 -46 -19 -38 -19 -78 2 -134 25 -69 82 -120 133
-120 31 0 87 29 116 59 63 67 84 202 44 281 -39 76 -117 110 -175 76z m17 -53
c26 -23 23 -58 -6 -71 -18 -8 -30 -27 -42 -66 -15 -48 -16 -59 -4 -82 31 -57
86 -56 124 4 13 21 26 47 29 58 3 14 5 11 6 -9 2 -46 -34 -104 -69 -112 -56
-12 -113 23 -125 76 -4 15 -13 33 -21 40 -18 15 -18 43 0 58 7 6 16 24 19 39
6 25 50 82 64 82 4 0 15 -7 25 -17z"/>
<path d="M6804 6845 c-13 -20 -14 -28 -4 -40 10 -12 15 -13 28 -3 8 7 25 13
36 13 24 0 35 33 14 46 -25 16 -57 9 -74 -16z"/>
<path d="M6521 6836 c-29 -30 -20 -46 24 -46 19 0 37 -4 40 -10 3 -5 13 -10
21 -10 21 0 18 53 -4 73 -26 24 -55 21 -81 -7z"/>
<path d="M5977 6529 c-17 -10 -17 -13 7 -44 14 -19 26 -37 26 -41 0 -11 88
-142 119 -179 47 -53 135 -140 169 -165 19 -14 40 -31 47 -37 7 -7 24 -17 37
-23 13 -5 30 -14 38 -18 41 -23 62 -33 97 -41 21 -6 58 -15 83 -21 52 -14 197
-7 213 9 6 6 20 11 31 11 24 0 129 41 134 53 2 4 10 7 17 7 16 0 159 105 222
163 25 23 66 69 92 102 25 33 54 69 64 80 32 34 50 76 38 88 -7 7 -74 10 -196
8 -121 -2 -191 1 -199 8 -7 6 -66 15 -132 20 -65 5 -143 15 -173 21 -36 8
-149 10 -355 7 -165 -3 -305 -6 -311 -7 -5 -1 -19 1 -30 4 -11 3 -28 1 -38 -5z
m753 -44 c30 -8 87 -15 125 -15 39 0 90 -5 115 -12 25 -6 87 -13 138 -17 51
-3 93 -10 93 -16 1 -9 -46 -27 -151 -57 -61 -18 -381 -17 -480 0 -156 29 -370
99 -370 122 0 17 465 13 530 -5z"/>
<path d="M8001 5372 c-9 -17 -5 -49 19 -147 6 -27 18 -75 25 -105 7 -30 19
-77 25 -105 7 -27 16 -70 20 -95 5 -25 13 -58 19 -73 6 -16 11 -42 11 -59 0
-16 7 -44 14 -61 8 -18 16 -45 18 -60 2 -15 8 -28 13 -28 15 0 18 47 4 73 -7
12 -15 49 -19 83 -8 59 -19 123 -45 260 -7 39 -20 108 -29 155 -9 47 -16 101
-16 121 0 53 -38 80 -59 41z"/>
<path d="M5853 3513 c15 -2 37 -2 50 0 12 2 0 4 -28 4 -27 0 -38 -2 -22 -4z"/>
<path d="M4436 4965 c-9 -24 -7 -63 3 -69 13 -9 24 50 13 70 -8 15 -10 15 -16
-1z"/>
<path d="M4405 4816 c-11 -54 -11 -495 -1 -561 8 -54 10 -57 17 -30 11 47 11
625 -1 625 -5 0 -12 -15 -15 -34z"/>
</g>
</svg>
